<svg xmlns="http://www.w3.org/2000/svg" version="1.1" xmlns:xlink="http://www.w3.org/1999/xlink" xmlns:svgjs="http://svgjs.dev/svgjs" width="128" height="128" viewBox="0 0 128 128"><g transform="matrix(0.8046875,0,0,0.8046875,12.333870967741937,17.451441037407875)"><svg viewBox="0 0 155 141" data-background-color="#ffffff" preserveAspectRatio="xMidYMid meet" height="116" width="128" xmlns="http://www.w3.org/2000/svg" xmlns:xlink="http://www.w3.org/1999/xlink"><g id="tight-bounds" transform="matrix(1,0,0,1,0.25,-0.18627450980392268)"><svg viewBox="0 0 154.5 141.37254901960785" height="141.37254901960785" width="154.5"><g><svg viewBox="0 0 154.5 141.37254901960785" height="141.37254901960785" width="154.5"><g><svg viewBox="0 0 154.5 141.37254901960785" height="141.37254901960785" width="154.5"><g id="textblocktransform"><svg viewBox="0 0 154.5 141.37254901960785" height="141.37254901960785" width="154.5" id="textblock"><g><svg viewBox="0 0 154.5 141.37254901960785" height="141.37254901960785" width="154.5"><g transform="matrix(1,0,0,1,0,0)"><svg width="154.5" viewBox="2.05 -35 38.25 35" height="141.37254901960785" data-palette-color="#6b7280"><g class="wordmark-text-0" data-fill-palette-color="primary" id="text-0"><path d="M2.05 0L2.05-35 8.95-35 14.3-14.05 14.4-14.05 14.4-35 19.3-35 19.3 0 13.65 0 7.05-25.55 6.95-25.55 6.95 0 2.05 0ZM23.4 0L23.4-35 28.9-35 28.9-20.75 34.8-20.75 34.8-35 40.3-35 40.3 0 34.8 0 34.8-15.75 28.9-15.75 28.9 0 23.4 0Z" fill="#6b7280" data-fill-palette-color="primary"></path></g></svg></g></svg></g></svg></g></svg></g></svg></g><defs></defs></svg><rect width="154.5" height="141.37254901960785" fill="none" stroke="none" visibility="hidden"></rect></g></svg></g></svg>